HIERARCHY
ROOT hip
{
	OFFSET 0.000000 0.000000 0.000000 
	CHANNELS 6 Xposition Yposition Zposition Xrotation Zrotation Yrotation
	JOINT abdomen
	{
		OFFSET 0.000000 3.402643 0.000000 
		CHANNELS 3 Xrotation Zrotation Yrotation
		JOINT chest
		{
			OFFSET 0.000000 8.438565 -0.680529 
			CHANNELS 3 Xrotation Zrotation Yrotation
			JOINT neck
			{
				OFFSET 0.000000 10.207942 -0.272212 
				CHANNELS 3 Xrotation Zrotation Yrotation
				JOINT head
				{
					OFFSET 0.000000 3.130431 0.000000 
					CHANNELS 3 Xrotation Zrotation Yrotation
					End Site
					{
						OFFSET 0.000000 3.130435 0.000000 
					}
				}
			}
			JOINT lCollar
			{
				OFFSET 3.470700 6.669187 -0.816635 
				CHANNELS 3 Yrotation Zrotation Xrotation
				JOINT lShldr
				{
					OFFSET 3.198488 0.000000 0.000000 
					CHANNELS 3 Zrotation Yrotation Xrotation
					JOINT lForeArm
					{
						OFFSET 10.139888 0.000000 0.000000 
						CHANNELS 3 Yrotation Zrotation Xrotation
						JOINT lHand
						{
							OFFSET 8.370511 0.000000 0.000000 
							CHANNELS 3 Zrotation Yrotation Xrotation
							End Site
							{
								OFFSET 4.083176 0.000000 0.000000 
							}
						}
					}
				}
			}
			JOINT rCollar
			{
				OFFSET -3.470700 6.669187 -0.816635 
				CHANNELS 3 Yrotation Zrotation Xrotation
				JOINT rShldr
				{
					OFFSET -3.198488 0.000000 0.000000 
					CHANNELS 3 Zrotation Yrotation Xrotation
					JOINT rForeArm
					{
						OFFSET -10.139888 0.000000 0.000000 
						CHANNELS 3 Yrotation Zrotation Xrotation
						JOINT rHand
						{
							OFFSET -8.370511 0.000000 0.000000 
							CHANNELS 3 Zrotation Yrotation Xrotation
							End Site
							{
								OFFSET -4.083176 0.000000 0.000000 
							}
						}
					}
				}
			}
		}
	}
	JOINT lThigh
	{
		OFFSET 5.308129 -1.633274 1.361059 
		CHANNELS 3 Xrotation Zrotation Yrotation
		JOINT lShin
		{
			OFFSET -2.041588 -20.007561 0.000000 
			CHANNELS 3 Xrotation Zrotation Yrotation
			JOINT lFoot
			{
				OFFSET 0.000000 -19.190928 -1.224953 
				CHANNELS 3 Xrotation Yrotation Zrotation
				End Site
				{
					OFFSET 0.000000 -2.449906 4.627600 
				}
			}
		}
	}
	JOINT rThigh
	{
		OFFSET -5.308129 -1.633274 1.361059 
		CHANNELS 3 Xrotation Zrotation Yrotation
		JOINT rShin
		{
			OFFSET 2.041588 -20.007561 0.000000 
			CHANNELS 3 Xrotation Zrotation Yrotation
			JOINT rFoot
			{
				OFFSET 0.000000 -19.190928 -1.224953 
				CHANNELS 3 Xrotation Yrotation Zrotation
				End Site
				{
					OFFSET 0.000000 -2.449906 4.627600 
				}
			}
		}
	}
}
MOTION
Frames: 9
Frame Time: 0.033333
15.421128 47.159649 -23.777790 -9.990234 8.203124 35.020927 38.917095 -0.719558 -8.183772 -14.268275 11.990601 -7.898099 11.834867 -2.418943 -12.350054 0.598405 12.913615 -15.074052 -12.479582 -10.523953 -0.002319 -67.010338 -19.496964 24.392841 -124.931374 0.559437 7.386213 24.221670 19.200783 8.416893 21.492046 5.185640 -0.000275 60.025608 -15.079597 -19.846745 116.474953 -0.168962 2.732237 -26.526525 -2.083371 1.031969 2.154574 21.292660 26.393717 54.530025 0.138790 -3.669536 -9.182218 1.327919 -11.960674 -17.134403 -24.731249 2.403979 24.590361 1.343413 2.197206 24.181658 7.808784 8.982834 
15.884604 48.468193 -25.418467 -7.685547 8.427734 35.410156 39.294872 -1.102203 -8.925096 -15.828605 12.310792 -8.566196 9.822045 -3.731612 -12.279408 1.613752 12.541210 -14.887048 -12.162484 -9.171378 -0.004204 -66.856194 -14.151464 25.399891 -124.085411 0.718800 9.189007 18.056143 19.750479 6.279399 21.588184 4.199504 -0.005162 63.031979 -18.092926 -18.524986 115.865509 -0.128722 2.289943 -22.276838 -1.659767 0.669056 1.393425 17.893728 22.829735 49.538212 -0.172964 -3.486977 -5.868307 -7.557404 -13.067159 -17.251070 -26.837923 -1.606053 19.409605 1.523137 1.852284 31.135906 11.575069 5.770837 
16.343046 49.326538 -26.949879 -6.318359 7.714844 34.931641 39.290882 -0.788306 -8.463249 -17.298809 12.271877 -8.419172 8.632150 -5.116394 -12.524722 1.924558 12.973400 -15.268682 -12.180724 -7.252900 -0.004687 -66.685593 -9.631696 26.974979 -123.414864 1.026562 12.759619 14.491353 19.660143 4.966438 21.994722 2.979312 -0.004039 64.280838 -22.044762 -15.900936 115.583618 0.010212 0.670945 -22.440691 2.925181 -1.220233 0.671894 15.678171 17.250708 45.812630 -0.377529 -3.328656 -4.494657 -11.556823 -13.238167 -17.489294 -26.404713 -1.055488 16.415628 1.608479 1.677409 37.673080 17.558157 -0.179567 
16.827482 49.560444 -28.372301 -5.859375 6.572265 33.203129 38.974621 -0.403629 -7.186304 -17.752243 12.064132 -7.471700 7.515715 -6.283930 -12.794812 2.252673 13.708420 -15.720362 -12.728940 -4.913492 -0.010814 -66.793457 -5.970147 26.269875 -123.269653 1.023992 12.760826 16.646393 20.702141 6.037956 22.419371 2.005683 -0.003852 62.601410 -24.987858 -12.154187 116.345963 0.049328 0.274255 -23.457571 1.540611 -0.681182 1.073135 14.431683 14.875527 44.320232 -0.455720 -3.258813 -4.887907 -0.223338 -12.201108 -18.677053 -24.457729 2.330193 17.034731 1.588254 1.717344 37.149761 15.657323 1.342905 
17.351597 49.094315 -29.718012 -5.908203 5.478516 30.830076 38.570686 -0.224181 -6.044267 -17.339592 12.603668 -6.523109 6.216450 -8.491785 -12.583344 2.422062 14.637488 -15.861736 -12.513949 -2.909652 -0.005898 -67.357338 -3.271120 23.967566 -124.052353 0.877880 11.023503 13.997980 20.441982 4.973303 23.485838 -0.393664 0.000697 60.579857 -26.821341 -8.928264 117.093307 -0.052941 1.465565 -21.075062 0.328186 -0.136684 2.136611 14.584641 16.629677 44.388546 -0.455444 -3.261990 -6.857867 8.842210 -10.936366 -20.807039 -22.653111 4.019863 19.526260 1.519761 1.887103 32.483036 10.442213 6.132951 
17.885775 48.164848 -31.023066 -5.761718 4.482423 28.799589 37.802582 -0.157424 -5.269002 -16.809629 12.899923 -5.852520 5.885153 -9.719096 -12.217711 1.454420 15.059538 -15.864551 -11.853374 -1.135676 -0.008732 -67.514221 -1.375419 21.515352 -124.993896 0.832971 10.597688 12.773939 20.811172 4.606756 23.975058 -2.426220 0.000429 58.103977 -26.916140 -6.012101 117.835144 -0.053899 1.495146 -18.506601 -0.363195 0.111125 2.740400 15.187326 18.826956 44.778229 -0.445666 -3.296324 -11.404399 5.893879 -10.907762 -22.849297 -21.492548 6.743429 19.928949 1.500257 1.905093 28.431381 5.577446 9.518767 
18.335699 47.026352 -32.246655 -4.902344 4.863281 28.360205 37.023567 -1.273137 -6.008162 -16.659397 13.555200 -6.151408 7.925971 -10.127920 -12.012890 -1.558763 15.325662 -16.119429 -10.397084 -1.478766 -0.003144 -65.675758 -1.247841 19.955770 -125.475708 0.749233 9.640170 13.386563 21.583914 5.002862 24.416706 -2.272600 0.002843 54.719044 -26.528070 -4.619895 118.931595 -0.014067 1.045877 -15.988273 -0.635179 0.168972 1.696577 14.194064 19.865858 46.534576 -0.328965 -3.353112 -18.404673 2.596266 -11.377761 -25.357159 -22.673281 9.662768 20.820662 1.471022 1.966582 25.128149 2.957125 11.029753 
18.490791 45.984962 -33.396748 -3.652344 6.074219 29.833986 37.212315 -2.654276 -7.199572 -16.892591 13.739258 -6.699060 9.530723 -9.729434 -12.533518 -3.493709 15.901775 -16.958658 -8.101088 -4.458002 -0.004081 -61.225700 -4.989005 19.658239 -124.699791 0.619462 8.114031 13.736239 22.297688 5.294524 23.133987 -0.489831 -0.003106 52.642250 -24.798607 -5.445127 119.489677 -0.097720 2.055540 -13.154312 -0.085668 0.009509 -1.309507 12.398521 19.536005 49.499199 -0.154292 -3.476960 -24.041136 2.062606 -11.426811 -28.042913 -25.124741 11.458937 23.425842 1.382709 2.125008 21.031271 1.194881 11.842354 
18.485205 45.270260 -34.287926 -3.779296 6.308594 31.045994 37.953072 -2.164796 -6.398672 -16.653873 11.318857 -5.944088 11.159681 -7.133331 -13.794590 -5.153636 16.440157 -18.434414 -7.148006 -5.265306 -0.001856 -59.582813 -10.209498 20.149500 -122.623657 0.633331 8.207951 14.605535 23.437906 5.922627 21.365009 0.868687 -0.004318 56.503925 -23.897991 -9.307917 119.131203 -0.148418 2.612595 -12.012770 0.512720 -0.114617 -4.033220 12.464008 18.558115 53.194599 0.049944 -3.622494 -26.796663 1.351814 -11.739534 -28.160786 -25.867247 11.373605 23.739191 1.372815 2.139320 18.225002 -1.236093 12.627481 
